<svg version="1" xmlns="http://www.w3.org/2000/svg" width="853.333" height="853.333" viewBox="0 0 640.000000 640.000000"><path d="M232.3 20.2c3.6 26 3.5 70.1-.2 93.8-7.7 50.1-25.9 91.2-55 124.5-3.8 4.4-6.8 8.1-6.7 8.2.2.2 3.6-1.1 7.7-2.7 4.1-1.7 14.8-5.8 23.9-9.2l16.5-6 14.5-.5c32.9-1.2 70.8 5.1 109.2 18.3 20.2 7 32.8 12.3 54.6 23.1 20.1 10.1 19.7 8.3 3.8 19.1-17.2 11.6-45.6 25.1-69.9 33.1l-9.8 3.3-11.2-2.1c-40.4-7.4-119.2-11.1-150.7-7-16.9 2.2-29.6 6.5-31.8 10.6-.6 1-2.1 8.3-3.6 16.3-8.4 46.6-8.5 59.6-.8 109.5l3.8 24 4.9 2.7c20.6 11.4 47 16.7 86.5 17.5 42.3.9 76.6-3.1 134-15.3 1.9-.4 8.7 2.6 26.5 11.5 23.8 11.9 43.8 24.1 52.5 31.8l4.4 4-8.8 5.2c-20.8 12.3-42.8 21.4-66.3 27.6l-9.1 2.4-13.1-4.4c-39.4-13.3-71.4-18.9-108.1-18.9-35.9 0-52.3 3.7-50.3 11.4.8 3.1 6.9 9.5 18.6 19.6 25.8 22.2 55.6 38.2 85.6 46 40.4 10.5 87.7 5.1 125.1-14.2 36.9-19.1 71.2-56 93.5-100.4 9.7-19.4 18.6-43.1 19.9-53 .5-3.8.1-5.3-2.4-9.8-1.7-2.9-6.2-8.6-10.1-12.6-6-6.4-6.7-7.5-5.4-8.6.9-.7 3.7-4.6 6.4-8.6 15.1-22.5 15.8-54.2 2.1-95.4-12.7-38.5-39.7-85.8-67.6-118.3-7.6-9-32.8-33.5-58.7-57.2-7.1-6.5-15.2-14.9-18-18.8-4.6-6.3-8.9-9.8-44.6-36.6-21.8-16.3-49.9-37.2-62.6-46.5-12.6-9.3-24.5-18.1-26.4-19.5l-3.4-2.6.6 4.7z"/></svg>