<svg style="height:100%;width:100%" viewBox="90 -15 210 297" xmlns="http://www.w3.org/2000/svg"><path transform="matrix(.035278 0 0 -.035278 -137.08 344.46)" d="m10396 8898.2c-3.6 542.86-446.83 980.11-990.14 976.59-543.3-3.51-980.89-446.44-977.37-989.29 3.51-542.88 446.79-980.11 990.1-976.59 150.55 0.96 292.98 35.73 420.15 96.97l-3.62-4c43.73-25.47 216.68-187.4 216.68-187.4l-2.2 328.7c213.6 181.7 348.3 452.86 346.4 755.02" fill="#0089d0"/><path transform="matrix(.035278 0 0 -.035278 -137.08 344.46)" d="m8082.5 8731.4c66.94 533.03-454.57 1037.3-1164.8 1126.4-710.27 89.07-1340.3-270.83-1407.3-803.86-66.96-533.03 454.56-1037.3 1164.8-1126.4 261.28-32.76 511.69-4.77 727.23 70.25l201.26-276.23 49.53 394.28c236.58 145.55 397.25 360.77 429.26 615.56" fill="#e8ca1a"/><path transform="matrix(.035278 0 0 -.035278 -137.08 344.46)" d="m10902 9363.7c56.5 434.19 571.3 725.23 1149.9 650.13 578.5-75.1 1001.8-488 945.3-922.19-56.5-434.2-571.3-725.27-1149.8-650.15-212.9 27.63-404.7 100.98-559.3 204.26l-215.4-176.71 41.7 321.2c-156.7 163.24-239.3 365.9-212.4 573.46" fill="#ff6765"/><path transform="matrix(.035278 0 0 -.035278 -137.08 344.46)" d="m8860 8504.6c-49 0-90.64 17.12-124.93 51.4-34.29 34.26-51.44 75.67-51.44 124.24v401.79c0 48.95 17.24 90.56 51.74 124.83 34.48 34.26 76.03 51.4 124.63 51.4 48.99 0 90.54-17.24 124.64-51.69 34.09-34.47 51.15-75.98 51.15-124.54v-84h-115.23v86.35c0 17.63-6.28 32.7-18.82 45.24-12.55 12.52-27.63 18.79-45.27 18.79-17.63 0-32.62-6.27-44.97-18.79-12.35-12.54-18.52-27.61-18.52-45.24v-402.97c0-17.62 6.17-32.6 18.52-44.94 12.35-12.33 27.34-18.5 44.97-18.5 17.64 0 32.72 6.17 45.27 18.5 12.54 12.34 18.82 27.32 18.82 44.94v101.62h115.23v-102.79c0-48.96-17.26-90.47-51.74-124.54-34.5-34.07-75.84-51.1-124.05-51.1" fill="#fff"/><path transform="matrix(.035278 0 0 -.035278 -137.08 344.46)" d="m9238 8514h-111.12v736.04h111.12v-736.04" fill="#fff"/><path transform="matrix(.035278 0 0 -.035278 -137.08 344.46)" d="m9532 9081.4-41.15-290.19h82.3zm-58.37-398.28-27-169.17h-115.69l125.23 736.04h152.84l123.45-736.04h-116.82l-26 169.17h-116.01" fill="#fff"/><path transform="matrix(.035278 0 0 -.035278 -137.08 344.46)" d="m10045 9085.5c0 17.62-6.1 32.6-18.5 44.93-12.3 12.34-27.33 18.51-44.97 18.51s-32.73-6.17-45.27-18.51c-12.54-12.33-18.81-27.31-18.81-44.93v-402.98c0-17.62 6.27-32.6 18.81-44.93 12.54-12.34 27.63-18.51 45.27-18.51s32.67 6.17 44.97 18.51c12.4 12.33 18.5 27.31 18.5 44.93zm-60.53 173.87c49.03 0 90.63-17.23 124.93-51.69s51.4-75.98 51.4-124.53v-401.8c0-48.96-17.2-90.56-51.7-124.83s-76-51.4-124.63-51.4c-49 0-90.54 17.23-124.63 51.7-34.1 34.45-51.15 75.97-51.15 124.53v401.8c0 48.95 17.24 90.56 51.74 124.83 34.48 34.26 75.83 51.39 124.04 51.39" fill="#fff"/><path transform="matrix(.035278 0 0 -.035278 -137.08 344.46)" d="m7186.7 6880.3c-48.62 303.71-423.9 657.21-693.11 562.27-15.84 288.14-237.08 385.28-463.14 349.14-91.68-14.64-173.53-55.98-241.08-116.53-116.16 104.75-264.56 157.82-415.69 133.68-245.72-39.28-420.85-270.27-439.15-549.15-25.79 0.31-51.82-1.51-77.94-5.69-294.08-46.99-487.1-368.55-431.12-718.21 55.97-349.66 339.74-595.01 633.8-548.01 61.67 9.84 118.87 31.82 170.3 63.55 97.89-275.82 344.86-454.52 599.61-413.82 205.52 32.85 361.65 199.8 417.95 416.73 74.95-15.7 153.66-20.86 233.96-14.04l280.88-326.04 15.6 408.92c285.41 142.66 459.34 443.52 409.13 757.2" fill="#ff6765"/><path transform="matrix(.035278 0 0 -.035278 -137.08 344.46)" d="m5071.2 6694.9v-272.65h-97.13v643.37h97.13v-273.17h117.16v273.17h97.12v-643.37h-97.12v272.65h-117.16" fill="#fff"/><path transform="matrix(.035278 0 0 -.035278 -137.08 344.46)" d="m5542.4 6918.2-35.97-253.65h71.94zm-51.02-348.13-23.6-147.87h-101.13l109.46 643.37h133.6l107.91-643.37h-102.12l-22.72 147.87h-101.4" fill="#fff"/><path transform="matrix(.035278 0 0 -.035278 -137.08 344.46)" d="m6064 6422.2h-264.65v643.37h97.13v-546.84h167.52v-96.53" fill="#fff"/><path transform="matrix(.035278 0 0 -.035278 -137.08 344.46)" d="m6395.4 6422.2h-264.65v643.37h97.13v-546.84h167.52v-96.53" fill="#fff"/><path transform="matrix(.035278 0 0 -.035278 -137.08 344.46)" d="m6668.8 6921.8c0 15.4-5.39 28.49-16.18 39.28-10.79 10.78-23.9 16.17-39.31 16.17-15.42 0-28.61-5.39-39.57-16.17-10.97-10.79-16.44-23.88-16.44-39.28v-352.24c0-15.4 5.47-28.5 16.44-39.28 10.96-10.78 24.15-16.17 39.57-16.17 15.41 0 28.52 5.39 39.31 16.17s16.18 23.88 16.18 39.28zm-52.93 151.98c42.83 0 79.22-15.06 109.2-45.18 29.98-30.13 44.97-66.42 44.97-108.85v-351.22c0-42.79-15.08-79.16-45.22-109.11-30.15-29.95-66.47-44.92-108.95-44.92-42.82 0-79.13 15.06-108.94 45.18-29.8 30.12-44.7 66.4-44.7 108.85v351.22c0 42.78 15.07 79.15 45.22 109.1 30.14 29.95 66.29 44.93 108.42 44.93" fill="#fff"/><path transform="matrix(.035278 0 0 -.035278 -137.08 344.46)" d="m11461 9215.4v-227.46h-81v536.76h81v-227.9h97.7v227.9h81.1v-536.76h-81.1v227.46h-97.7" fill="#fff"/><path transform="matrix(.035278 0 0 -.035278 -137.08 344.46)" d="m11883 9404.8c0 12.85-4.5 23.77-13.5 32.77s-19.9 13.49-32.8 13.49c-12.8 0-23.9-4.49-33-13.49-9.2-9-13.7-19.92-13.7-32.77v-293.87c0-12.85 4.5-23.77 13.7-32.77 9.1-8.99 20.2-13.49 33-13.49 12.9 0 23.8 4.5 32.8 13.49 9 9 13.5 19.92 13.5 32.77zm-44.1 126.8c35.7 0 66-12.57 91.1-37.7 25-25.13 37.5-55.41 37.5-90.81v-293.01c0-35.7-12.6-66.05-37.8-91.03-25.1-25-55.4-37.49-90.8-37.49-35.8 0-66.1 12.57-90.9 37.7-24.9 25.12-37.3 55.4-37.3 90.82v293.01c0 35.69 12.5 66.03 37.7 91.03 25.1 24.98 55.3 37.48 90.5 37.48" fill="#fff"/><path transform="matrix(.035278 0 0 -.035278 -137.08 344.46)" d="m12260 8988h-220.8v536.76h81v-456.22h139.8v-80.54" fill="#fff"/><path transform="matrix(.035278 0 0 -.035278 -137.08 344.46)" d="m12462 9401.8-30-211.62h60zm-42.6-290.44-19.7-123.37h-84.3l91.3 536.76h111.5l90-536.76h-85.2l-19 123.37h-84.6" fill="#fff"/><path transform="matrix(.035278 0 0 -.035278 -137.08 344.46)" d="m6533.8 9170.6c0 9.37-22.15 24.69-73.26 46.82-12.78 4.26-19.6 9.37-19.6 12.77 0 5.11 10.23 8.52 30.67 9.37 3.41 0 120.12-14.47 120.12-42.57 0-5.96-3.41-12.77-3.41-21.28l-0.85-267.3c11.93 0.85 25.56 0 38.34 1.7 39.19 7.66 21.3 23.83 86.89 23.83 17.04 0 48.56 0 48.56-22.98 0-11.07-9.37-21.28-24.71-21.28l-149.93-3.41c-0.85-154.08-5.96-192.39-14.48-216.23-7.67-16.17-17.04-28.94-24.71-28.94-7.66 0-12.78 10.22-13.63 38.31zm-287.94-503.96c-0.85 16.18-20.44 23.84-63.89 36.61-9.37 2.55-16.19 5.95-16.19 10.21s7.67 8.51 27.26 11.92c39.19 0 74.12-3.41 90.31-5.96 15.33-3.4 18.74-8.51 18.74-16.17 0-5.97-1.71-12.77-2.56-22.14 0-37.45 0-87.68 0.85-117.48 0.85-19.57 11.93-27.24 41.75-28.94l154.19 1.7c63.89 5.11 33.22 24.69 109.04 24.69 28.11 0 63.89-3.4 63.89-28.94 0-10.22-8.52-18.73-23-18.73h-307.53c-57.08 0.85-88.6 14.47-92.01 57.03zm-175.49 293.7c0-57.89 43.44-114.93 130.34-114.93 85.19 0 127.79 57.04 127.79 114.93 0 57.03-42.6 115.77-127.79 115.77-86.9 0-130.34-58.74-130.34-115.77zm108.19 149.82c13.63 2.55 24.71 6.81 24.71 17.03 0 4.25-2.56 10.21-7.67 17.02-7.67 5.96-11.08 10.22-11.08 13.62 0 2.56 3.41 4.26 11.08 4.26 25.55 0 56.22-14.47 56.22-27.24 0-9.37-10.22-17.88-11.92-28.09 98.82-22.99 142.26-84.28 142.26-146.42 0-76.62-68.15-151.54-178.89-151.54-117.57 0-186.57 71.51-186.57 151.54 0 66.39 51.11 132.79 161.86 149.82" fill="#fff"/><path transform="matrix(.035278 0 0 -.035278 -137.08 344.46)" d="m7424 9174.9c-0.85 8.51-35.78 29.79-75.82 47.67-8.52 2.56-23.85 7.66-23.85 12.77 0 5.96 21.29 11.07 26.41 11.07 17.89 0 132.04-17.03 132.04-44.27 0-7.66-5.11-15.32-5.96-26.39l-1.7-235.81c0-143.01-11.08-168.55-28.12-192.39-3.41-5.1-6.81-6.81-9.37-6.81-8.52 0-13.63 19.58-13.63 52.78v100.46c-39.19-0.86-77.52-4.26-105.64-5.97-15.33-3.4-17.03-10.21-28.11-10.21-15.33 0-74.96 26.39-74.96 34.05 0 3.4 5.11 4.26 14.48 4.26 8.52 0 48.55-1.71 57.93-1.71 40.04 0 81.78 2.56 136.3 5.96v147.28c-51.11-0.85-88.59-3.41-109.04-5.11-20.45-2.55-21.3-11.07-32.37-11.07-12.78 0-69.01 21.28-69.01 34.91 0 2.55 3.41 4.25 11.08 4.25 4.26 0 9.37-0.85 16.18-1.7 19.6-0.85 35.78-0.85 51.97-0.85 41.74 0 75.82 1.7 131.19 4.25zm-242.79-550.78c0-56.19 41.74-111.52 125.23-111.52 76.67 0 115.01 55.33 115.01 111.52 0 55.33-38.34 110.67-115.01 110.67-83.49 0-125.23-55.34-125.23-110.67zm104.79 137.05c8.51 1.71 13.62 7.66 13.62 14.47 0 5.11-2.55 11.07-8.52 16.18-5.96 5.11-8.51 9.36-8.51 11.92 0 3.4 2.55 4.25 7.66 4.25 15.34 0 51.97-13.61 51.97-25.53 0-6.82-5.97-13.63-7.67-24.69 94.56-15.32 138.01-74.91 138.01-135.36 0-71.51-61.33-143.86-167.82-143.86-111.6 0-171.23 72.35-171.23 143.86 0 62.15 46 124.29 143.97 136.21zm-356.1 326.05c0 16.17-34.93 27.24-67.3 36.6-8.52 2.56-17.89 5.96-17.89 11.07 0 4.26 6.82 8.51 26.41 13.62 101.37-5.11 112.45-15.33 112.45-28.94 0-4.26-0.85-8.52-0.85-13.63v-197.49c-0.85-12.78 3.41-19.58 27.26-19.58 32.37 0 166.12 33.2 256.42 84.27 7.67 3.41 13.63 5.11 17.04 5.11 1.7 0 2.56 0 2.56-1.7 0-2.56-4.27-7.66-14.49-16.17-104.78-70.66-271.75-123.44-299.86-123.44-24.71 0-35.79 43.41-39.19 61.29l-2.56 188.99" fill="#fff"/><path transform="matrix(.035278 0 0 -.035278 -137.08 344.46)" d="m10891 6365.4c0 700.77-757 1268.8-1690.8 1268.8-933.77 0-1690.7-568.08-1690.7-1268.8 0-700.76 756.97-1268.8 1690.7-1268.8 343.5 0 663.05 76.87 929.78 208.95l305.4-324.86v518.37c282.6 226.77 455.6 531.41 455.6 866.37" fill="#00bded"/><path transform="matrix(.035278 0 0 -.035278 -137.08 344.46)" d="m9375.9 5929.1h-348.3v846.71h127.82v-719.67h220.48v-127.04" fill="#fff"/><path transform="matrix(.035278 0 0 -.035278 -137.08 344.46)" d="m9812.1 5929.1h-348.3v846.71h127.82v-719.67h220.48v-127.04" fill="#fff"/><path transform="matrix(.035278 0 0 -.035278 -137.08 344.46)" d="m10172 6586.6c0 20.28-7.1 37.51-21.3 51.7s-31.4 21.28-51.7 21.28-37.7-7.09-52.1-21.28-21.6-31.42-21.6-51.7v-463.56c0-20.28 7.2-37.51 21.6-51.7s31.8-21.29 52.1-21.29 37.5 7.1 51.7 21.29 21.3 31.42 21.3 51.7zm-69.6 200.02c56.3 0 104.2-19.83 143.7-59.46 39.4-39.65 59.2-87.41 59.2-143.26v-462.21c0-56.32-19.9-104.18-59.6-143.6-39.6-39.43-87.4-59.13-143.3-59.13-56.4 0-104.18 19.82-143.41 59.47-39.22 39.63-58.84 87.39-58.84 143.26v462.21c0 56.31 19.84 104.17 59.52 143.6 39.67 39.41 87.23 59.12 142.73 59.12" fill="#fff"/><path transform="matrix(.035278 0 0 -.035278 -137.08 344.46)" d="m13620 8160.4h-2413c-43.6 0-79.1-35.39-79.1-79.05v-1521.7c0-43.65 35.5-79.06 79.1-79.06h279.6v-342.82l321 342.82h1812.4c43.7 0 79.1 35.41 79.1 79.06v1521.7c0 43.66-35.4 79.05-79.1 79.05" fill="#0089d0"/><path transform="matrix(.035278 0 0 -.035278 -137.08 344.46)" d="m12344 7064.9c-16.7 82.41-67.6 208.64-120.2 302.43l51.7 18.41c55.3-93.79 107.1-217.39 124.6-299.8zm-318.5 295.42c-2.6-6.13-8.7-9.64-19.3-9.64-28-107.82-76.3-222.66-131.5-292.79-11.5 9.64-32.5 22.79-46.5 29.81 53.5 66.62 99.1 179.7 126.3 291.91zm280.7 28.93c7.1 32.44 15.8 81.53 23.7 128.87h-174.5v-511.95c0-63.12-22.8-74.51-145.7-74.51-3.5 17.53-12.2 42.95-21.9 60.48 21.9-0.87 43-0.87 59.7-0.87h35.1c11.4 0 14.9 3.51 14.9 14.9v511.95h-141.3c-26.3-64-57-121.85-90.3-165.69-10.6 10.52-30.7 28.05-44.8 35.94 63.2 81.53 115 219.16 144.8 356.79l72.8-19.29c-1.8-6.13-7.9-9.64-19.3-8.76-11.4-48.22-25.4-97.31-42.1-143.77h387.7l30.7-0.87c0-14.91-21-129.74-39.5-192.86zm-600.9 21.04c-28.9-50.84-59.6-97.31-91.2-136.75-7.9 12.27-26.3 35.06-37.7 47.33 82.5 98.19 161.4 264.75 211.4 426.92l72.8-21.92c-3.5-8.76-11.4-10.52-21-9.64-23.7-70.13-51.8-141.14-83.4-207.76l25.5-7.01c-1.8-5.26-6.2-9.64-17.6-10.52v-557.53h-58.8v476.88" fill="#fff"/><path transform="matrix(.035278 0 0 -.035278 -137.08 344.46)" d="m13275 7355.9v-56.98h-211.4v-290.16c0-67.5-26.4-78.02-181.6-76.27-3.5 15.78-13.2 41.21-22 58.74 42.1-0.88 80.7-1.76 105.3-1.76 29.8 0 38.6 0 38.6 18.42v291.03h-214.9v56.98h214.9v149.03l29-1.76c45.6 38.57 93.8 93.8 129.8 142.89h-337.8v55.23h382.5l11.4 3.5 46.5-28.93c-2.6-4.38-8.8-7.01-14-8.76-45.6-64.87-121.1-148.15-187.7-202.5v-108.7zm-669.4 150.78c-18.4-81.53-38.6-163.93-57-235.81 36.9-20.16 74.6-44.71 111.4-69.25 35.1 81.52 60.6 183.21 72.8 305.06zm157.9 57.86 33.4-8.77-5.3-12.27c-12.3-155.17-40.3-279.64-84.2-376.95 43-33.31 79.8-65.74 103.5-95.55l-36-48.21c-21.9 28.05-55.2 59.61-93.8 91.16-44.8-81.52-103.5-141.13-173.7-183.21-7.9 14.9-24.6 35.94-36.9 48.21 65.8 35.07 121.1 92.05 165 170.95-32.5 24.54-66.7 47.33-100 67.49l-10.6-38.57-50 26.3c22 77.15 49.2 188.47 74.6 301.56h-87.7v55.22h100c14 65.75 26.3 128.87 36.8 184.97l72-8.76c-0.9-6.14-6.2-9.65-17.6-10.52-9.6-49.97-21.9-106.95-35.1-165.69h135.1l10.5 2.64" fill="#fff"/><path transform="matrix(.035278 0 0 -.035278 -137.08 344.46)" d="m11352 4608.9h-2952.4c-40.76 0-73.8-33.02-73.8-73.74v-1180.4c0-40.73 33.04-73.74 73.8-73.74h260.81v-319.79l299.4 319.79h2392.2c40.8 0 73.8 33.01 73.8 73.74v1180.4c0 40.72-33 73.74-73.8 73.74" fill="#ff6765"/><path transform="matrix(.035278 0 0 -.035278 -137.08 344.46)" d="m6004.4 4516.5c-46.88 429.74 379.32 828.67 951.94 891.04 572.63 62.37 1074.8-235.44 1121.7-665.18 46.87-429.73-379.32-828.67-951.95-891.04-210.65-22.94-411.76 2.87-584.18 66.02l-165.56-219.6-34.68 317.88c-188.44 120.21-314.89 295.47-337.3 500.88" fill="#0089d0"/><path transform="matrix(.035278 0 0 -.035278 -137.08 344.46)" d="m6547.8 4543.7v74.85c0 23.25-3.77 41.54-11.29 54.86l-3.61 6.17c-11.63-10.49-28.45-21.84-50.44-34.02 10.35-7.52 22.66-22.9 36.93-46.15 14.25-23.25 23.73-41.82 28.41-55.71zm-148.34-98.47c15.75 0 23.62 8.08 23.62 24.25 0 15.73-7.87 23.6-23.62 23.6-15.61 0-23.41-7.87-23.41-23.6 0-16.17 7.8-24.25 23.41-24.25zm137.91 300.49c9.79 12.18 14.68 29.9 14.68 53.16h63.64c0-11.63-3.05-26.73-9.16-45.3-6.09-18.57-14.97-32.53-26.6-41.89 9.37-9.92 15.93-23.15 19.69-39.66 3.76-16.52 5.64-29.45 5.64-38.81v-222.01h-60.01c-23.84 84.78-56.97 150.13-99.4 196.06-3.54-2.41-8.93-8.25-16.17-17.54-7.24-9.28-13.77-20.17-19.58-32.64-5.82-12.48-8.73-20.77-8.73-24.88 19.72 0 35.4-5.35 47.04-16.05 11.63-10.71 17.45-26.27 17.45-46.68 0-18.58-5.96-33.96-17.88-46.15-11.91-12.19-28.38-18.29-49.38-18.29-45.25 0-67.89 25.02-67.89 75.07 0 39.41 13.09 80.17 39.27 122.28 26.18 42.1 68 77.12 125.46 105.05-8.66 4.53-24.62 6.8-47.89 6.8-67.96 0-101.94-35.94-101.94-107.82h-55.12c0 49.91 14.12 88.22 42.35 114.95 28.24 26.71 68.82 40.08 121.74 40.08 38.87 0 66.47-5.24 82.79-15.73" fill="#fff"/><path transform="matrix(.035278 0 0 -.035278 -137.08 344.46)" d="m6862.5 4449.5c15.61 0 23.42 8.15 23.42 24.45 0 15.74-7.81 23.61-23.42 23.61-15.74 0-23.62-7.87-23.62-23.61 0-16.3 7.88-24.45 23.62-24.45zm15.75 86.33v105.27c0 49.48-24.76 74.22-74.27 74.22-49.95 0-74.92-24.46-74.92-73.37v-31.26h-53.21v27.86c0 35.44 11.07 64.78 33.21 88.04 22.13 23.24 54.12 34.87 95.98 34.87 87.12 0 130.68-39.48 130.68-118.45v-162.04c0-26.23-7.13-45.12-21.39-56.67-14.26-11.56-31.54-17.33-51.83-17.33-22.13 0-39.01 6.52-50.65 19.56s-17.45 28.28-17.45 45.72c0 12.76 2.91 24.21 8.72 34.35 5.83 10.13 14.12 17.54 24.91 22.22 10.78 4.68 27.52 7.01 50.22 7.01" fill="#fff"/><path transform="matrix(.035278 0 0 -.035278 -137.08 344.46)" d="m6821.7 4932c-16.32 0-24.48-8.08-24.48-24.24 0-16.31 8.16-24.46 24.48-24.46 16.17 0 24.26 8.15 24.26 24.46 0 16.16-8.09 24.24-24.26 24.24zm253.47 13.18c-8.66-31.89-30.15-59.47-64.49-82.72-34.19-22.68-73.98-34.02-119.39-34.02-42.99 0-75.83 6.66-98.54 19.99-23.13 13.32-34.69 32.17-34.69 56.56 0 18.72 6.1 34.16 18.3 46.36 12.21 12.19 28.45 18.29 48.74 18.29 18.59 0 33.41-6.1 44.48-18.29 11.07-12.2 16.6-26.72 16.6-43.59 0-15.74-4.4-26.23-13.2-31.48 0-1.7 9.58-2.55 28.73-2.55 29.1 0 55.84 8.44 80.24 25.31 24.97 17.43 41.57 40.33 49.8 68.68l43.42-22.54" fill="#fff"/><path transform="matrix(.035278 0 0 -.035278 -137.08 344.46)" d="m7260.1 4543.7v74.85c0 23.25-3.77 41.54-11.29 54.86l-3.61 6.17c-11.64-10.49-28.45-21.84-50.44-34.02 10.35-7.52 22.66-22.9 36.93-46.15 14.25-23.25 23.73-41.82 28.41-55.71zm-148.34-98.47c15.75 0 23.62 8.08 23.62 24.25 0 15.73-7.87 23.6-23.62 23.6-15.61 0-23.41-7.87-23.41-23.6 0-16.17 7.8-24.25 23.41-24.25zm137.91 300.49c9.79 12.18 14.68 29.9 14.68 53.16h63.64c0-11.63-3.05-26.73-9.16-45.3-6.1-18.57-14.97-32.53-26.6-41.89 9.37-9.92 15.93-23.15 19.69-39.66 3.75-16.52 5.64-29.45 5.64-38.81v-222.01h-60.02c-23.83 84.78-56.96 150.13-99.39 196.06-3.55-2.41-8.94-8.25-16.17-17.54-7.24-9.28-13.77-20.17-19.58-32.64-5.82-12.48-8.73-20.77-8.73-24.88 19.72 0 35.4-5.35 47.04-16.05 11.63-10.71 17.45-26.27 17.45-46.68 0-18.58-5.96-33.96-17.88-46.15s-28.38-18.29-49.38-18.29c-45.25 0-67.89 25.02-67.89 75.07 0 39.41 13.09 80.17 39.27 122.28 26.18 42.1 68 77.12 125.46 105.05-8.66 4.53-24.62 6.8-47.89 6.8-67.96 0-101.94-35.94-101.94-107.82h-55.12c0 49.91 14.11 88.22 42.35 114.95 28.23 26.71 68.82 40.08 121.74 40.08 38.87 0 66.47-5.24 82.79-15.73" fill="#fff"/><path transform="matrix(.035278 0 0 -.035278 -137.08 344.46)" d="m7569.5 4640.3c-17.45 0-26.18-8.72-26.18-26.16 0-18 8.73-27.01 26.18-27.01 17.46 0 26.18 9.01 26.18 27.01 0 17.44-8.72 26.16-26.18 26.16zm-21.7-84.43c-28.52 6.39-42.78 25.24-42.78 56.57 0 18.57 6.1 33.81 18.3 45.72s27.88 17.87 47.04 17.87c18.01 0 33.27-5.36 45.75-16.06 12.49-10.71 18.73-26.26 18.73-46.68 0-18.57-9.01-38-27.03-58.27l-125.35-143.75h-62.79v231.79c0 37.15 14.08 66.17 42.25 87.08 28.16 20.92 64.02 31.37 107.58 31.37 51.22 0 89.32-10.92 114.29-32.75s37.46-50.4 37.46-85.7v-231.79h-57.47v229.88c0 49.48-31.14 74.22-93.42 74.22-25.55 0-47.46-6.14-65.77-18.4-18.3-12.26-27.45-30.87-27.45-55.82v-162.89l70.66 77.61" fill="#fff"/><path transform="matrix(.035278 0 0 -.035278 -137.08 344.46)" d="m7476.3 4887.8c6.95 0.56 18.02 0.85 33.2 0.85 38.31 0 82.43-6.74 132.37-20.2-2.83 8.79-13.12 20.12-30.85 34.02-17.74 13.89-38.24 20.84-61.51 20.84-19.15 0-35.57-3.61-49.27-10.84-13.69-7.24-21.67-15.46-23.94-24.67zm187.5 32.11v58.26h57.46v-166.29c-82.58 24.38-170.9 36.58-264.97 36.58-9.93 0-21.56-0.29-34.9-0.85l-20.86-0.86c0 21.55 13.38 47.25 40.12 77.09 26.75 29.84 64.52 44.76 113.33 44.76s85.41-16.23 109.82-48.69" fill="#fff"/><path transform="matrix(.035278 0 0 -.035278 -137.08 344.46)" d="m8744.3 4068.6c28.21 21.69 66.74 48.25 96.04 62.89v0.54c-41.24-4.88-135.65-7.04-195.88-6.5 0 10.3 0 28.19-0.54 37.95 11.94-0.54 220.29-3.8 309.28 17.35l4.34-40.13c-64.57-7.58-147.59-63.97-182.31-91.62zm243.63-273.78c-47.75-8.68-110.69-12.47-164.96-12.47-45.57 0-85.19 2.71-106.34 7.05-65.66 14.63-93.88 55.84-93.88 103.55 0 41.74 23.33 83.49 55.35 116.02l31.47-16.27c-30.38-31.44-47.75-66.14-47.75-96.5 0-31.44 21.16-60.18 67.83-70.48 18.99-4.34 51-6.5 88.44-6.5 52.63 0 115.58 4.33 167.13 14.63l2.71-39.03" fill="#fff"/><path transform="matrix(.035278 0 0 -.035278 -137.08 344.46)" d="m9045.4 3776.9c40.15 114.93 106.9 306.85 128.06 364.32 10.31 29.27 24.41 70.48 28.21 84.03l58.6-15.18c-2.71-7.59-10.31-10.3-21.16-10.3-29.84-74.27-75.96-201.14-96.04-255.35h0.54c32.02 39.03 80.85 66.68 118.83 66.68 47.21 0 70-31.98 68.37-82.4l-1.63-64.51c-0.54-40.67 21.16-62.9 56.44-62.9 48.82 0 93.86 55.84 118.82 149.1 10.85-7.6 23.88-14.64 35.28-20.07-29.85-103.55-83.57-168.6-155.73-168.6-57.52 0-94.96 34.7-94.96 89.99 0 10.3 1.63 60.18 1.63 71.57 0 34.15-14.11 52.04-37.98 52.04-62.41 0-125.34-90.53-138.91-125.77-7.6-18.98-19.54-53.68-29.84-85.12l-38.53 12.47" fill="#fff"/><path transform="matrix(.035278 0 0 -.035278 -137.08 344.46)" d="m9793 4137.4c69.99 1.63 164.4 8.14 236.61 20.61l3.2-37.96c-67.26-11.38-176.33-18.43-238.73-20.05zm251.21-331.25c-19.5-1.08-39.6-1.62-59.68-1.62-38.52 0-74.87 2.16-100.92 5.96-66.73 9.76-97.66 46.62-97.66 90 0 37.41 20.61 68.85 50.99 104.63l35.28-15.18c-27.13-28.19-46.13-54.21-46.13-85.12 0-62.89 92.25-62.89 148.68-62.89 22.79 0 47.24 1.09 70.04 2.71zm-345.63 396.31c-1.63-5.96-7.05-9.21-17.91-8.67-18.98-88.37-28.75-185.42-28.75-243.97 0-40.66 1.63-81.86 7.05-107.34 10.32 26.56 33.65 83.49 41.25 102.46l22.78-23.85c-22.25-54.76-38.53-85.66-46.12-110.05-2.71-9.22-4.34-17.9-4.34-25.49 0-5.96 1.08-11.38 2.71-16.8l-38.52-7.05c-17.36 51.5-23.88 114.39-23.88 186.49 0 71.03 11.4 170.24 28.76 264.03l56.97-9.76" fill="#fff"/><path transform="matrix(.035278 0 0 -.035278 -137.08 344.46)" d="m10515 4133.1c-70.5-17.89-168.8-29.28-233.3-31.45-7.1-67.77-16.8-123.61-25.5-143.67 42.3 34.16 108 57.47 154.1 57.47 80.8 0 130.2-43.37 130.2-116.56 0-107.89-109.1-144.21-285.4-148.55-2.2 10.31-6 26.57-10.9 35.78 155.8 3.26 256.7 29.82 256.7 111.68 0 48.8-32.6 82.41-95.5 82.41-48.3 0-131.3-29.27-167.1-82.95l-38 17.9c17.4 19.51 35.3 97.04 43.4 185.95h-127v37.95c22.8-0.54 89.6-0.54 130.3-0.54 2.1 30.9 3.2 65.6 3.2 98.13l57.5-5.42c-1.1-9.22-7.6-10.85-17.3-11.93-1.1-27.11-2.8-54.76-4.9-80.24 57.5 1.62 157.3 14.09 222.4 33.07l7.1-39.03" fill="#fff"/><path transform="matrix(.035278 0 0 -.035278 -137.08 344.46)" d="m10952 3875.6c-17.4 5.42-35.8 9.76-53.7 9.76-33.1 0-72.8-11.93-72.8-46.09 0-30.36 32.6-45.54 72.2-45.54 40.2 0 54.8 19.52 54.8 62.89zm-148.7 213.06c45.6-0.54 91.2-1.09 136.7 2.17-2.1 46.62-3.8 86.74-4.8 126.86l54.8-1.62c-0.6-5.42-5.5-9.77-14.1-11.39 0.5-34.7 1.6-69.94 2.7-111.14 42.8 4.34 77.6 11.93 106.3 21.69l4.9-37.95c-26-8.14-63.5-15.73-109.6-19.52 2.2-60.18 4.9-123.61 6.5-158.31 41.2-16.8 82.5-43.37 110.7-68.85l-21.2-34.7c-22.2 22.23-54.2 46.08-87.9 61.81-0.5-46.08-9.2-97.59-90.6-97.59-63.5 0-105.8 30.36-105.8 78.07 0 55.3 55.9 79.7 105.8 79.7 16.8 0 34.7-2.17 51.6-7.05-1.7 34.15-4.9 91.08-7.6 144.21-16.9-1.08-39.6-1.63-55.4-1.63h-82.5zm-137.8-319.32c-16.8 39.03-23.3 119.81-23.3 190.83 0 72.11 11.3 162.64 29.2 253.19l52.7-10.31c-1.1-5.42-6.5-9.21-14.1-9.75-19.6-74.28-31.5-170.78-31.5-233.67 0-41.2 0.5-82.41 4.9-102.47 11.9 32.53 33.6 84.58 45 110.06l24.4-22.77c-17.9-36.87-55.8-119.27-55.8-144.75 0-7.59 1.6-15.72 5.4-26.03l-36.9-4.33" fill="#fff"/><path transform="matrix(.035278 0 0 -.035278 -137.08 344.46)" d="m11440 5086.3c0 284.01 225.9 526.43 543.9 621.88 85.9 221.03 300.9 377.71 552.4 377.71 102.1 0 198.1-25.78 281.9-71.15 107.8 112.46 259.7 182.48 427.8 182.48 273.5 0 503.7-185.11 572-436.75 27.9 4.04 56.5 6.17 85.5 6.17 327.3 0 592.6-265.09 592.6-592.09s-265.3-592.08-592.6-592.08c-68.6 0-134.5 11.69-195.8 33.14-58.3-265.79-295.3-464.72-578.8-464.72-228.7 0-427.1 129.49-525.9 319.09-78.6-25.24-163.1-41.42-251.4-46.91l-248.2-338.22-87.9 370.59c-334.5 88.5-575.5 337.49-575.5 630.86" fill="#e8ca1a"/><path transform="matrix(.035278 0 0 -.035278 -137.08 344.46)" d="m11986 4954.4h35.8c29.1 0 49.2 14.97 60.4 44.88 3.9 10.27 5.9 22.06 5.9 35.36 0 31.73-6.1 54.85-18.2 69.35-10.9 13.3-26.9 19.95-48.1 19.95h-35.8zm0 251.59h35.8c26.6 0 44.5 12.99 53.6 38.98 3.3 9.67 4.9 21.6 4.9 35.81 0 23.58-5.7 41.4-17.2 53.49-10.6 11.18-24.3 16.78-41.3 16.78h-35.8zm-92.6-336.35v568.44h128.4c33.9 0 64.4-8.92 91.7-26.75 23.3-15.11 39.9-38.53 49.9-70.26 5.4-16.93 8.1-37.02 8.1-60.29 0-38.07-10.1-68.6-30.4-91.57-8.4-9.67-18.4-17.07-29.9-22.21 19-7.25 35.2-21.6 48.5-43.06 8.8-14.51 15.3-33.25 19.6-56.21 2.1-11.78 3.1-24.93 3.1-39.43 0-35.97-6.8-66.49-20.4-91.57-10.6-19.65-25.6-35.36-44.9-47.14-21.8-13.31-43.4-19.95-64.9-19.95h-158.8" fill="#fff"/><path transform="matrix(.035278 0 0 -.035278 -137.08 344.46)" d="m12438 5310.7c0 13.6-4.7 25.16-14.3 34.68-9.5 9.52-21.1 14.27-34.7 14.27s-25.2-4.75-34.9-14.27-14.5-21.08-14.5-34.68v-310.96c0-13.6 4.8-25.16 14.5-34.68s21.3-14.28 34.9-14.28 25.2 4.76 34.7 14.28c9.6 9.52 14.3 21.08 14.3 34.68zm-46.7 134.18c37.8 0 69.9-13.31 96.4-39.89 26.5-26.6 39.7-58.64 39.7-96.1v-310.06c0-37.78-13.3-69.88-39.9-96.32-26.6-26.45-58.7-39.67-96.2-39.67-37.8 0-69.9 13.29-96.2 39.89-26.3 26.59-39.4 58.62-39.4 96.1v310.06c0 37.77 13.3 69.88 39.9 96.32s58.5 39.67 95.7 39.67" fill="#fff"/><path transform="matrix(.035278 0 0 -.035278 -137.08 344.46)" d="m12699 5438.1 113.7-382.03v382.03h85.8v-568.44h-92.1l-118 364v-364h-85.7v568.44h96.3" fill="#fff"/><path transform="matrix(.035278 0 0 -.035278 -137.08 344.46)" d="m13146 4998.4c0-37.77-13.3-69.73-39.7-95.86-26.5-26.15-58.5-39.22-96-39.22-21.7 0-39.4 2.27-53 6.8l12.2 79.78c9.7-1.81 18-2.72 25-2.72 4.2-0.3 10.2-0.15 18.1 0.46 13.9 0.9 25.6 5.89 35.2 14.95 9.5 9.07 14.3 20.4 14.3 34v440.16h83.9v-438.35" fill="#fff"/><path transform="matrix(.035278 0 0 -.035278 -137.08 344.46)" d="m13404 5310.7c0 13.6-4.8 25.16-14.3 34.68s-21.1 14.27-34.7 14.27-25.3-4.75-34.9-14.27c-9.7-9.52-14.5-21.08-14.5-34.68v-310.96c0-13.6 4.8-25.16 14.5-34.68 9.6-9.52 21.3-14.28 34.9-14.28s25.2 4.76 34.7 14.28 14.3 21.08 14.3 34.68zm-46.7 134.18c37.8 0 69.9-13.31 96.4-39.89 26.4-26.6 39.7-58.64 39.7-96.1v-310.06c0-37.78-13.3-69.88-40-96.32-26.6-26.45-58.6-39.67-96.1-39.67-37.8 0-69.9 13.29-96.2 39.89-26.3 26.59-39.5 58.62-39.5 96.1v310.06c0 37.77 13.3 69.88 40 96.32 26.6 26.44 58.5 39.67 95.7 39.67" fill="#fff"/><path transform="matrix(.035278 0 0 -.035278 -137.08 344.46)" d="m13703 4863.3c-37.8 0-69.9 13.15-96.2 39.44s-39.5 58.17-39.5 95.64v439.25h84v-438.34c0-13.6 4.8-25.15 14.5-34.68 9.6-9.51 21.3-14.27 34.9-14.27s25.2 4.76 34.7 14.27c9.5 9.53 14.3 21.08 14.3 34.68v438.34h89.4v-439.25c0-38.07-13.3-70.11-40-96.09-26.6-26-58.6-38.99-96.1-38.99" fill="#fff"/><path transform="matrix(.035278 0 0 -.035278 -137.08 344.46)" d="m14102 5300.7c0 32.93-16.3 49.41-49 49.41h-51.7v-181.78h51.7c13.6 0 25.2 4.83 34.7 14.51 9.6 9.67 14.3 21.31 14.3 34.9zm-51.2 136.89c47.7 0 82.8-13.14 105.2-39.43 19.7-22.97 29.5-55.01 29.5-96.1v-82.5c0-40.2-15.3-74.19-45.8-102l63.5-247.95h-92.7l-52 213.95h-7.7-49.5v-213.95h-85.7v567.98h135.2" fill="#fff"/><path transform="matrix(.035278 0 0 -.035278 -137.08 344.46)" d="m8179.5 6287.9v-358.82h-127.82v846.71h127.82v-359.5h154.2v359.5h127.82v-846.71h-127.82v358.82h-154.2" fill="#fff"/><path transform="matrix(.035278 0 0 -.035278 -137.08 344.46)" d="m8575.8 5929.1v847.39h363.85v-128.39h-236.03v-231.11h172.45v-128.4h-172.45v-231.1h236.03v-128.39h-363.85" fill="#fff"/></svg>
